<?xml version="1.0" encoding="utf-8" ?>
<svg baseProfile="full" height="300mm" version="1.1" viewBox="0,0,200,300" width="200mm" xmlns="http://www.w3.org/2000/svg" xmlns:ev="http://www.w3.org/2001/xml-events" xmlns:xlink="http://www.w3.org/1999/xlink"><defs /><rect fill="#222222" height="300" width="200" x="0" y="0" /><text fill="#FFFFFF" style="font-size:12px; font-family:Arial; font-weight:bold;" x="10" y="20">Gmx's Running Grid</text><text fill="#FFFFFF" style="font-size:4px; font-family:Arial" x="10" y="280">Runner</text><text fill="#FFFFFF" style="font-size:9px; font-family:Arial" x="10" y="290">gumuxi</text><text fill="#FFFFFF" style="font-size:4px; font-family:Arial" x="65" y="280">SPECIAL TRACKS</text><rect fill="yellow" height="2.6" width="2.6" x="65" y="283" /><text fill="#FFFFFF" style="font-size:3px; font-family:Arial" x="70" y="285.5">Over 20.0 km</text><rect fill="red" height="2.6" width="2.6" x="65" y="287" /><text fill="#FFFFFF" style="font-size:3px; font-family:Arial" x="70" y="289.5">Over 40.0 km</text><text fill="#FFFFFF" style="font-size:4px; font-family:Arial" x="120" y="280">STATISTICS</text><text fill="#FFFFFF" style="font-size:3px; font-family:Arial" x="120" y="285">Number: 13</text><text fill="#FFFFFF" style="font-size:3px; font-family:Arial" x="120" y="290">Weekly: 13.0</text><text fill="#FFFFFF" style="font-size:3px; font-family:Arial" x="141" y="285">Total: 47.0 km</text><text fill="#FFFFFF" style="font-size:3px; font-family:Arial" x="141" y="290">Avg: 3.6 km</text><text fill="#FFFFFF" style="font-size:3px; font-family:Arial" x="167" y="285">Min: 3.6 km</text><text fill="#FFFFFF" style="font-size:3px; font-family:Arial" x="167" y="290">Max: 3.6 km</text><polyline fill="none" points="48.22881118860096,59.854071907990146 46.537062937160954,60.28241171402624 45.993286713259295,60.63936133636162 43.57650349638425,61.1390904787695 40.19300699280575,61.995768114342354 39.64923076913692,62.06715786631685 38.01790209766477,62.63827560021309 34.45314685301855,62.99522392870858 33.42601398588158,62.566885910811834 31.67384615377523,62.78105495503405 29.559160839067772,63.209392831951845 27.26321678329259,63.28078245057259 24.906853146851063,63.06661357107805 24.42349650315009,63.209392831951845 23.819300699280575,62.99522392870858 23.335944055812433,62.49549621361075 23.15468531474471,61.995768114342354 23.275524475378916,59.56851188058499 23.033846153877676,57.426807675510645 22.852587412344292,56.355952926154714 22.12755244760774,55.64204877970042 20.133706293534487,55.427877382782754 17.17314685275778,55.49926785641583 16.568951048888266,56.284562546701636 15.964755244320258,56.42734329763334 15.42097902088426,56.42734329763334 14.998041957849637,56.284562546701636 13.245874125743285,56.355952926154714 12.943776223575696,56.641514365095645 12.460419580107555,56.71290470525855 12.399999999906868,57.06985628831899 13.245874125743285,58.997391449287534 13.668811188777909,59.782681912824046 14.756363636581227,60.71075123746414 15.723076923051849,60.92492089327425 15.723076923051849,61.78159881144529 17.052307692123577,61.85298858687747 17.837762237526476,61.28187016322045 18.864895104896277,61.2104803249822 19.227412587031722,61.28187016322045 20.0732867133338,61.06770062475698 22.308811188675463,61.49603963084519 22.490069930208847,61.78159881144529 22.490069930208847,62.28132707538316 22.792167832143605,62.49549621361075 23.335944055812433,62.63827560021309 23.69846153864637,62.99522392870858 33.96979020978324,62.49549621361075 34.99692307692021,62.63827560021309 37.172027971828356,62.42410650878446 38.86377622396685,61.995768114342354 39.40755244763568,62.06715786631685 40.37426573433913,61.85298858687747 42.24727272707969,61.28187016322045 42.79104895098135,61.06770062475698 42.42853146861307,58.997391449287534 41.70349650341086,56.78429503750522 39.2262937061023,50.71608879539417 38.56167832156643,48.717137861822266 38.07832167833112,48.28879043326015 38.19916083919816,48.00322532420978 38.07832167833112,47.646268761192914 38.92419580416754,46.78957221028395 40.19300699280575,46.1470490557258 43.57650349638425,44.719217549369205 44.180699300719425,45.57591682957718 47.262097902130336,52.572252013895195 48.47048951056786,53.71450366714271 50.645594405476004,54.57119108980987 53.2436363636516,56.85568536206847 53.60615384625271,56.78429503750522 54.512447552289814,57.21263686666498 55.5999999998603,58.35488036420429" stroke="#4DD2FF" stroke-linecap="round" stroke-linejoin="round" stroke-width="0.5"><title>2022-07-23 3.6km</title><desc>15091849575</desc></polyline><polyline fill="none" points="114.22881118860096,59.854071907990146 112.53706293716095,60.28241171402624 111.9932867132593,60.63936133636162 109.57650349638425,61.1390904787695 106.19300699280575,61.995768114342354 105.64923076913692,62.06715786631685 104.01790209766477,62.63827560021309 100.45314685301855,62.99522392870858 99.42601398588158,62.566885910811834 97.67384615377523,62.78105495503405 95.55916083906777,63.209392831951845 93.26321678329259,63.28078245057259 90.90685314685106,63.06661357107805 90.42349650315009,63.209392831951845 89.81930069928057,62.99522392870858 89.33594405581243,62.49549621361075 89.15468531474471,61.995768114342354 89.27552447537892,59.56851188058499 89.03384615387768,57.426807675510645 88.85258741234429,56.355952926154714 88.12755244760774,55.64204877970042 86.13370629353449,55.427877382782754 83.17314685275778,55.49926785641583 82.56895104888827,56.284562546701636 81.96475524432026,56.42734329763334 81.42097902088426,56.42734329763334 80.99804195784964,56.284562546701636 79.24587412574328,56.355952926154714 78.9437762235757,56.641514365095645 78.46041958010755,56.71290470525855 78.39999999990687,57.06985628831899 79.24587412574328,58.997391449287534 79.66881118877791,59.782681912824046 80.75636363658123,60.71075123746414 81.72307692305185,60.92492089327425 81.72307692305185,61.78159881144529 83.05230769212358,61.85298858687747 83.83776223752648,61.28187016322045 84.86489510489628,61.2104803249822 85.22741258703172,61.28187016322045 86.0732867133338,61.06770062475698 88.30881118867546,61.49603963084519 88.49006993020885,61.78159881144529 88.49006993020885,62.28132707538316 88.7921678321436,62.49549621361075 89.33594405581243,62.63827560021309 89.69846153864637,62.99522392870858 99.96979020978324,62.49549621361075 100.99692307692021,62.63827560021309 103.17202797182836,62.42410650878446 104.86377622396685,61.995768114342354 105.40755244763568,62.06715786631685 106.37426573433913,61.85298858687747 108.24727272707969,61.28187016322045 108.79104895098135,61.06770062475698 108.42853146861307,58.997391449287534 107.70349650341086,56.78429503750522 105.2262937061023,50.71608879539417 104.56167832156643,48.717137861822266 104.07832167833112,48.28879043326015 104.19916083919816,48.00322532420978 104.07832167833112,47.646268761192914 104.92419580416754,46.78957221028395 106.19300699280575,46.1470490557258 109.57650349638425,44.719217549369205 110.18069930071943,45.57591682957718 113.26209790213034,52.572252013895195 114.47048951056786,53.71450366714271 116.645594405476,54.57119108980987 119.2436363636516,56.85568536206847 119.60615384625271,56.78429503750522 120.51244755228981,57.21263686666498 121.5999999998603,58.35488036420429" stroke="#4DD2FF" stroke-linecap="round" stroke-linejoin="round" stroke-width="0.5"><title>2022-07-23 3.6km</title><desc>15091722240</desc></polyline><polyline fill="none" points="180.22881118860096,59.854071907990146 178.53706293716095,60.28241171402624 177.9932867132593,60.63936133636162 175.57650349638425,61.1390904787695 172.19300699280575,61.995768114342354 171.64923076913692,62.06715786631685 170.01790209766477,62.63827560021309 166.45314685301855,62.99522392870858 165.42601398588158,62.566885910811834 163.67384615377523,62.78105495503405 161.55916083906777,63.209392831951845 159.2632167832926,63.28078245057259 156.90685314685106,63.06661357107805 156.4234965031501,63.209392831951845 155.81930069928057,62.99522392870858 155.33594405581243,62.49549621361075 155.1546853147447,61.995768114342354 155.27552447537892,59.56851188058499 155.03384615387768,57.426807675510645 154.8525874123443,56.355952926154714 154.12755244760774,55.64204877970042 152.1337062935345,55.427877382782754 149.17314685275778,55.49926785641583 148.56895104888827,56.284562546701636 147.96475524432026,56.42734329763334 147.42097902088426,56.42734329763334 146.99804195784964,56.284562546701636 145.24587412574328,56.355952926154714 144.9437762235757,56.641514365095645 144.46041958010755,56.71290470525855 144.39999999990687,57.06985628831899 145.24587412574328,58.997391449287534 145.6688111887779,59.782681912824046 146.75636363658123,60.71075123746414 147.72307692305185,60.92492089327425 147.72307692305185,61.78159881144529 149.05230769212358,61.85298858687747 149.83776223752648,61.28187016322045 150.86489510489628,61.2104803249822 151.22741258703172,61.28187016322045 152.0732867133338,61.06770062475698 154.30881118867546,61.49603963084519 154.49006993020885,61.78159881144529 154.49006993020885,62.28132707538316 154.7921678321436,62.49549621361075 155.33594405581243,62.63827560021309 155.69846153864637,62.99522392870858 165.96979020978324,62.49549621361075 166.9969230769202,62.63827560021309 169.17202797182836,62.42410650878446 170.86377622396685,61.995768114342354 171.40755244763568,62.06715786631685 172.37426573433913,61.85298858687747 174.2472727270797,61.28187016322045 174.79104895098135,61.06770062475698 174.42853146861307,58.997391449287534 173.70349650341086,56.78429503750522 171.2262937061023,50.71608879539417 170.56167832156643,48.717137861822266 170.07832167833112,48.28879043326015 170.19916083919816,48.00322532420978 170.07832167833112,47.646268761192914 170.92419580416754,46.78957221028395 172.19300699280575,46.1470490557258 175.57650349638425,44.719217549369205 176.18069930071943,45.57591682957718 179.26209790213034,52.572252013895195 180.47048951056786,53.71450366714271 182.645594405476,54.57119108980987 185.2436363636516,56.85568536206847 185.6061538462527,56.78429503750522 186.5124475522898,57.21263686666498 187.5999999998603,58.35488036420429" stroke="#4DD2FF" stroke-linecap="round" stroke-linejoin="round" stroke-width="0.5"><title>2022-07-23 3.6km</title><desc>15084038934</desc></polyline><polyline fill="none" points="48.22881118860096,107.85407190799015 46.537062937160954,108.28241171402624 45.993286713259295,108.63936133636162 43.57650349638425,109.1390904787695 40.19300699280575,109.99576811434235 39.64923076913692,110.06715786631685 38.01790209766477,110.63827560021309 34.45314685301855,110.99522392870858 33.42601398588158,110.56688591081183 31.67384615377523,110.78105495503405 29.559160839067772,111.20939283195185 27.26321678329259,111.28078245057259 24.906853146851063,111.06661357107805 24.42349650315009,111.20939283195185 23.819300699280575,110.99522392870858 23.335944055812433,110.49549621361075 23.15468531474471,109.99576811434235 23.275524475378916,107.56851188058499 23.033846153877676,105.42680767551064 22.852587412344292,104.35595292615471 22.12755244760774,103.64204877970042 20.133706293534487,103.42787738278275 17.17314685275778,103.49926785641583 16.568951048888266,104.28456254670164 15.964755244320258,104.42734329763334 15.42097902088426,104.42734329763334 14.998041957849637,104.28456254670164 13.245874125743285,104.35595292615471 12.943776223575696,104.64151436509565 12.460419580107555,104.71290470525855 12.399999999906868,105.06985628831899 13.245874125743285,106.99739144928753 13.668811188777909,107.78268191282405 14.756363636581227,108.71075123746414 15.723076923051849,108.92492089327425 15.723076923051849,109.78159881144529 17.052307692123577,109.85298858687747 17.837762237526476,109.28187016322045 18.864895104896277,109.2104803249822 19.227412587031722,109.28187016322045 20.0732867133338,109.06770062475698 22.308811188675463,109.49603963084519 22.490069930208847,109.78159881144529 22.490069930208847,110.28132707538316 22.792167832143605,110.49549621361075 23.335944055812433,110.63827560021309 23.69846153864637,110.99522392870858 33.96979020978324,110.49549621361075 34.99692307692021,110.63827560021309 37.172027971828356,110.42410650878446 38.86377622396685,109.99576811434235 39.40755244763568,110.06715786631685 40.37426573433913,109.85298858687747 42.24727272707969,109.28187016322045 42.79104895098135,109.06770062475698 42.42853146861307,106.99739144928753 41.70349650341086,104.78429503750522 39.2262937061023,98.71608879539417 38.56167832156643,96.71713786182227 38.07832167833112,96.28879043326015 38.19916083919816,96.00322532420978 38.07832167833112,95.64626876119291 38.92419580416754,94.78957221028395 40.19300699280575,94.1470490557258 43.57650349638425,92.7192175493692 44.180699300719425,93.57591682957718 47.262097902130336,100.5722520138952 48.47048951056786,101.71450366714271 50.645594405476004,102.57119108980987 53.2436363636516,104.85568536206847 53.60615384625271,104.78429503750522 54.512447552289814,105.21263686666498 55.5999999998603,106.35488036420429" stroke="#4DD2FF" stroke-linecap="round" stroke-linejoin="round" stroke-width="0.5"><title>2022-07-23 3.6km</title><desc>15074238693</desc></polyline><polyline fill="none" points="114.22881118860096,107.85407190799015 112.53706293716095,108.28241171402624 111.9932867132593,108.63936133636162 109.57650349638425,109.1390904787695 106.19300699280575,109.99576811434235 105.64923076913692,110.06715786631685 104.01790209766477,110.63827560021309 100.45314685301855,110.99522392870858 99.42601398588158,110.56688591081183 97.67384615377523,110.78105495503405 95.55916083906777,111.20939283195185 93.26321678329259,111.28078245057259 90.90685314685106,111.06661357107805 90.42349650315009,111.20939283195185 89.81930069928057,110.99522392870858 89.33594405581243,110.49549621361075 89.15468531474471,109.99576811434235 89.27552447537892,107.56851188058499 89.03384615387768,105.42680767551064 88.85258741234429,104.35595292615471 88.12755244760774,103.64204877970042 86.13370629353449,103.42787738278275 83.17314685275778,103.49926785641583 82.56895104888827,104.28456254670164 81.96475524432026,104.42734329763334 81.42097902088426,104.42734329763334 80.99804195784964,104.28456254670164 79.24587412574328,104.35595292615471 78.9437762235757,104.64151436509565 78.46041958010755,104.71290470525855 78.39999999990687,105.06985628831899 79.24587412574328,106.99739144928753 79.66881118877791,107.78268191282405 80.75636363658123,108.71075123746414 81.72307692305185,108.92492089327425 81.72307692305185,109.78159881144529 83.05230769212358,109.85298858687747 83.83776223752648,109.28187016322045 84.86489510489628,109.2104803249822 85.22741258703172,109.28187016322045 86.0732867133338,109.06770062475698 88.30881118867546,109.49603963084519 88.49006993020885,109.78159881144529 88.49006993020885,110.28132707538316 88.7921678321436,110.49549621361075 89.33594405581243,110.63827560021309 89.69846153864637,110.99522392870858 99.96979020978324,110.49549621361075 100.99692307692021,110.63827560021309 103.17202797182836,110.42410650878446 104.86377622396685,109.99576811434235 105.40755244763568,110.06715786631685 106.37426573433913,109.85298858687747 108.24727272707969,109.28187016322045 108.79104895098135,109.06770062475698 108.42853146861307,106.99739144928753 107.70349650341086,104.78429503750522 105.2262937061023,98.71608879539417 104.56167832156643,96.71713786182227 104.07832167833112,96.28879043326015 104.19916083919816,96.00322532420978 104.07832167833112,95.64626876119291 104.92419580416754,94.78957221028395 106.19300699280575,94.1470490557258 109.57650349638425,92.7192175493692 110.18069930071943,93.57591682957718 113.26209790213034,100.5722520138952 114.47048951056786,101.71450366714271 116.645594405476,102.57119108980987 119.2436363636516,104.85568536206847 119.60615384625271,104.78429503750522 120.51244755228981,105.21263686666498 121.5999999998603,106.35488036420429" stroke="#4DD2FF" stroke-linecap="round" stroke-linejoin="round" stroke-width="0.5"><title>2022-07-23 3.6km</title><desc>15068584109</desc></polyline><polyline fill="none" points="180.22881118860096,107.85407190799015 178.53706293716095,108.28241171402624 177.9932867132593,108.63936133636162 175.57650349638425,109.1390904787695 172.19300699280575,109.99576811434235 171.64923076913692,110.06715786631685 170.01790209766477,110.63827560021309 166.45314685301855,110.99522392870858 165.42601398588158,110.56688591081183 163.67384615377523,110.78105495503405 161.55916083906777,111.20939283195185 159.2632167832926,111.28078245057259 156.90685314685106,111.06661357107805 156.4234965031501,111.20939283195185 155.81930069928057,110.99522392870858 155.33594405581243,110.49549621361075 155.1546853147447,109.99576811434235 155.27552447537892,107.56851188058499 155.03384615387768,105.42680767551064 154.8525874123443,104.35595292615471 154.12755244760774,103.64204877970042 152.1337062935345,103.42787738278275 149.17314685275778,103.49926785641583 148.56895104888827,104.28456254670164 147.96475524432026,104.42734329763334 147.42097902088426,104.42734329763334 146.99804195784964,104.28456254670164 145.24587412574328,104.35595292615471 144.9437762235757,104.64151436509565 144.46041958010755,104.71290470525855 144.39999999990687,105.06985628831899 145.24587412574328,106.99739144928753 145.6688111887779,107.78268191282405 146.75636363658123,108.71075123746414 147.72307692305185,108.92492089327425 147.72307692305185,109.78159881144529 149.05230769212358,109.85298858687747 149.83776223752648,109.28187016322045 150.86489510489628,109.2104803249822 151.22741258703172,109.28187016322045 152.0732867133338,109.06770062475698 154.30881118867546,109.49603963084519 154.49006993020885,109.78159881144529 154.49006993020885,110.28132707538316 154.7921678321436,110.49549621361075 155.33594405581243,110.63827560021309 155.69846153864637,110.99522392870858 165.96979020978324,110.49549621361075 166.9969230769202,110.63827560021309 169.17202797182836,110.42410650878446 170.86377622396685,109.99576811434235 171.40755244763568,110.06715786631685 172.37426573433913,109.85298858687747 174.2472727270797,109.28187016322045 174.79104895098135,109.06770062475698 174.42853146861307,106.99739144928753 173.70349650341086,104.78429503750522 171.2262937061023,98.71608879539417 170.56167832156643,96.71713786182227 170.07832167833112,96.28879043326015 170.19916083919816,96.00322532420978 170.07832167833112,95.64626876119291 170.92419580416754,94.78957221028395 172.19300699280575,94.1470490557258 175.57650349638425,92.7192175493692 176.18069930071943,93.57591682957718 179.26209790213034,100.5722520138952 180.47048951056786,101.71450366714271 182.645594405476,102.57119108980987 185.2436363636516,104.85568536206847 185.6061538462527,104.78429503750522 186.5124475522898,105.21263686666498 187.5999999998603,106.35488036420429" stroke="#4DD2FF" stroke-linecap="round" stroke-linejoin="round" stroke-width="0.5"><title>2022-07-23 3.6km</title><desc>15063519876</desc></polyline><polyline fill="none" points="48.22881118860096,155.85407190799015 46.537062937160954,156.28241171402624 45.993286713259295,156.63936133636162 43.57650349638425,157.1390904787695 40.19300699280575,157.99576811434235 39.64923076913692,158.06715786631685 38.01790209766477,158.6382756002131 34.45314685301855,158.99522392870858 33.42601398588158,158.56688591081183 31.67384615377523,158.78105495503405 29.559160839067772,159.20939283195185 27.26321678329259,159.2807824505726 24.906853146851063,159.06661357107805 24.42349650315009,159.20939283195185 23.819300699280575,158.99522392870858 23.335944055812433,158.49549621361075 23.15468531474471,157.99576811434235 23.275524475378916,155.568511880585 23.033846153877676,153.42680767551064 22.852587412344292,152.3559529261547 22.12755244760774,151.64204877970042 20.133706293534487,151.42787738278275 17.17314685275778,151.49926785641583 16.568951048888266,152.28456254670164 15.964755244320258,152.42734329763334 15.42097902088426,152.42734329763334 14.998041957849637,152.28456254670164 13.245874125743285,152.3559529261547 12.943776223575696,152.64151436509565 12.460419580107555,152.71290470525855 12.399999999906868,153.069856288319 13.245874125743285,154.99739144928753 13.668811188777909,155.78268191282405 14.756363636581227,156.71075123746414 15.723076923051849,156.92492089327425 15.723076923051849,157.7815988114453 17.052307692123577,157.85298858687747 17.837762237526476,157.28187016322045 18.864895104896277,157.2104803249822 19.227412587031722,157.28187016322045 20.0732867133338,157.06770062475698 22.308811188675463,157.4960396308452 22.490069930208847,157.7815988114453 22.490069930208847,158.28132707538316 22.792167832143605,158.49549621361075 23.335944055812433,158.6382756002131 23.69846153864637,158.99522392870858 33.96979020978324,158.49549621361075 34.99692307692021,158.6382756002131 37.172027971828356,158.42410650878446 38.86377622396685,157.99576811434235 39.40755244763568,158.06715786631685 40.37426573433913,157.85298858687747 42.24727272707969,157.28187016322045 42.79104895098135,157.06770062475698 42.42853146861307,154.99739144928753 41.70349650341086,152.78429503750522 39.2262937061023,146.71608879539417 38.56167832156643,144.71713786182227 38.07832167833112,144.28879043326015 38.19916083919816,144.00322532420978 38.07832167833112,143.6462687611929 38.92419580416754,142.78957221028395 40.19300699280575,142.1470490557258 43.57650349638425,140.7192175493692 44.180699300719425,141.57591682957718 47.262097902130336,148.5722520138952 48.47048951056786,149.7145036671427 50.645594405476004,150.57119108980987 53.2436363636516,152.85568536206847 53.60615384625271,152.78429503750522 54.512447552289814,153.21263686666498 55.5999999998603,154.3548803642043" stroke="#4DD2FF" stroke-linecap="round" stroke-linejoin="round" stroke-width="0.5"><title>2022-07-23 3.6km</title><desc>15057202632</desc></polyline><polyline fill="none" points="114.22881118860096,155.85407190799015 112.53706293716095,156.28241171402624 111.9932867132593,156.63936133636162 109.57650349638425,157.1390904787695 106.19300699280575,157.99576811434235 105.64923076913692,158.06715786631685 104.01790209766477,158.6382756002131 100.45314685301855,158.99522392870858 99.42601398588158,158.56688591081183 97.67384615377523,158.78105495503405 95.55916083906777,159.20939283195185 93.26321678329259,159.2807824505726 90.90685314685106,159.06661357107805 90.42349650315009,159.20939283195185 89.81930069928057,158.99522392870858 89.33594405581243,158.49549621361075 89.15468531474471,157.99576811434235 89.27552447537892,155.568511880585 89.03384615387768,153.42680767551064 88.85258741234429,152.3559529261547 88.12755244760774,151.64204877970042 86.13370629353449,151.42787738278275 83.17314685275778,151.49926785641583 82.56895104888827,152.28456254670164 81.96475524432026,152.42734329763334 81.42097902088426,152.42734329763334 80.99804195784964,152.28456254670164 79.24587412574328,152.3559529261547 78.9437762235757,152.64151436509565 78.46041958010755,152.71290470525855 78.39999999990687,153.069856288319 79.24587412574328,154.99739144928753 79.66881118877791,155.78268191282405 80.75636363658123,156.71075123746414 81.72307692305185,156.92492089327425 81.72307692305185,157.7815988114453 83.05230769212358,157.85298858687747 83.83776223752648,157.28187016322045 84.86489510489628,157.2104803249822 85.22741258703172,157.28187016322045 86.0732867133338,157.06770062475698 88.30881118867546,157.4960396308452 88.49006993020885,157.7815988114453 88.49006993020885,158.28132707538316 88.7921678321436,158.49549621361075 89.33594405581243,158.6382756002131 89.69846153864637,158.99522392870858 99.96979020978324,158.49549621361075 100.99692307692021,158.6382756002131 103.17202797182836,158.42410650878446 104.86377622396685,157.99576811434235 105.40755244763568,158.06715786631685 106.37426573433913,157.85298858687747 108.24727272707969,157.28187016322045 108.79104895098135,157.06770062475698 108.42853146861307,154.99739144928753 107.70349650341086,152.78429503750522 105.2262937061023,146.71608879539417 104.56167832156643,144.71713786182227 104.07832167833112,144.28879043326015 104.19916083919816,144.00322532420978 104.07832167833112,143.6462687611929 104.92419580416754,142.78957221028395 106.19300699280575,142.1470490557258 109.57650349638425,140.7192175493692 110.18069930071943,141.57591682957718 113.26209790213034,148.5722520138952 114.47048951056786,149.7145036671427 116.645594405476,150.57119108980987 119.2436363636516,152.85568536206847 119.60615384625271,152.78429503750522 120.51244755228981,153.21263686666498 121.5999999998603,154.3548803642043" stroke="#4DD2FF" stroke-linecap="round" stroke-linejoin="round" stroke-width="0.5"><title>2022-07-23 3.6km</title><desc>15052052486</desc></polyline><polyline fill="none" points="180.22881118860096,155.85407190799015 178.53706293716095,156.28241171402624 177.9932867132593,156.63936133636162 175.57650349638425,157.1390904787695 172.19300699280575,157.99576811434235 171.64923076913692,158.06715786631685 170.01790209766477,158.6382756002131 166.45314685301855,158.99522392870858 165.42601398588158,158.56688591081183 163.67384615377523,158.78105495503405 161.55916083906777,159.20939283195185 159.2632167832926,159.2807824505726 156.90685314685106,159.06661357107805 156.4234965031501,159.20939283195185 155.81930069928057,158.99522392870858 155.33594405581243,158.49549621361075 155.1546853147447,157.99576811434235 155.27552447537892,155.568511880585 155.03384615387768,153.42680767551064 154.8525874123443,152.3559529261547 154.12755244760774,151.64204877970042 152.1337062935345,151.42787738278275 149.17314685275778,151.49926785641583 148.56895104888827,152.28456254670164 147.96475524432026,152.42734329763334 147.42097902088426,152.42734329763334 146.99804195784964,152.28456254670164 145.24587412574328,152.3559529261547 144.9437762235757,152.64151436509565 144.46041958010755,152.71290470525855 144.39999999990687,153.069856288319 145.24587412574328,154.99739144928753 145.6688111887779,155.78268191282405 146.75636363658123,156.71075123746414 147.72307692305185,156.92492089327425 147.72307692305185,157.7815988114453 149.05230769212358,157.85298858687747 149.83776223752648,157.28187016322045 150.86489510489628,157.2104803249822 151.22741258703172,157.28187016322045 152.0732867133338,157.06770062475698 154.30881118867546,157.4960396308452 154.49006993020885,157.7815988114453 154.49006993020885,158.28132707538316 154.7921678321436,158.49549621361075 155.33594405581243,158.6382756002131 155.69846153864637,158.99522392870858 165.96979020978324,158.49549621361075 166.9969230769202,158.6382756002131 169.17202797182836,158.42410650878446 170.86377622396685,157.99576811434235 171.40755244763568,158.06715786631685 172.37426573433913,157.85298858687747 174.2472727270797,157.28187016322045 174.79104895098135,157.06770062475698 174.42853146861307,154.99739144928753 173.70349650341086,152.78429503750522 171.2262937061023,146.71608879539417 170.56167832156643,144.71713786182227 170.07832167833112,144.28879043326015 170.19916083919816,144.00322532420978 170.07832167833112,143.6462687611929 170.92419580416754,142.78957221028395 172.19300699280575,142.1470490557258 175.57650349638425,140.7192175493692 176.18069930071943,141.57591682957718 179.26209790213034,148.5722520138952 180.47048951056786,149.7145036671427 182.645594405476,150.57119108980987 185.2436363636516,152.85568536206847 185.6061538462527,152.78429503750522 186.5124475522898,153.21263686666498 187.5999999998603,154.3548803642043" stroke="#4DD2FF" stroke-linecap="round" stroke-linejoin="round" stroke-width="0.5"><title>2022-07-23 3.6km</title><desc>15045701262</desc></polyline><polyline fill="none" points="48.22881118860096,203.85407190799015 46.537062937160954,204.28241171402624 45.993286713259295,204.63936133636162 43.57650349638425,205.1390904787695 40.19300699280575,205.99576811434235 39.64923076913692,206.06715786631685 38.01790209766477,206.6382756002131 34.45314685301855,206.99522392870858 33.42601398588158,206.56688591081183 31.67384615377523,206.78105495503405 29.559160839067772,207.20939283195185 27.26321678329259,207.2807824505726 24.906853146851063,207.06661357107805 24.42349650315009,207.20939283195185 23.819300699280575,206.99522392870858 23.335944055812433,206.49549621361075 23.15468531474471,205.99576811434235 23.275524475378916,203.568511880585 23.033846153877676,201.42680767551064 22.852587412344292,200.3559529261547 22.12755244760774,199.64204877970042 20.133706293534487,199.42787738278275 17.17314685275778,199.49926785641583 16.568951048888266,200.28456254670164 15.964755244320258,200.42734329763334 15.42097902088426,200.42734329763334 14.998041957849637,200.28456254670164 13.245874125743285,200.3559529261547 12.943776223575696,200.64151436509565 12.460419580107555,200.71290470525855 12.399999999906868,201.069856288319 13.245874125743285,202.99739144928753 13.668811188777909,203.78268191282405 14.756363636581227,204.71075123746414 15.723076923051849,204.92492089327425 15.723076923051849,205.7815988114453 17.052307692123577,205.85298858687747 17.837762237526476,205.28187016322045 18.864895104896277,205.2104803249822 19.227412587031722,205.28187016322045 20.0732867133338,205.06770062475698 22.308811188675463,205.4960396308452 22.490069930208847,205.7815988114453 22.490069930208847,206.28132707538316 22.792167832143605,206.49549621361075 23.335944055812433,206.6382756002131 23.69846153864637,206.99522392870858 33.96979020978324,206.49549621361075 34.99692307692021,206.6382756002131 37.172027971828356,206.42410650878446 38.86377622396685,205.99576811434235 39.40755244763568,206.06715786631685 40.37426573433913,205.85298858687747 42.24727272707969,205.28187016322045 42.79104895098135,205.06770062475698 42.42853146861307,202.99739144928753 41.70349650341086,200.78429503750522 39.2262937061023,194.71608879539417 38.56167832156643,192.71713786182227 38.07832167833112,192.28879043326015 38.19916083919816,192.00322532420978 38.07832167833112,191.6462687611929 38.92419580416754,190.78957221028395 40.19300699280575,190.1470490557258 43.57650349638425,188.7192175493692 44.180699300719425,189.57591682957718 47.262097902130336,196.5722520138952 48.47048951056786,197.7145036671427 50.645594405476004,198.57119108980987 53.2436363636516,200.85568536206847 53.60615384625271,200.78429503750522 54.512447552289814,201.21263686666498 55.5999999998603,202.3548803642043" stroke="#4DD2FF" stroke-linecap="round" stroke-linejoin="round" stroke-width="0.5"><title>2022-07-23 3.6km</title><desc>15041714528</desc></polyline><polyline fill="none" points="114.22881118860096,203.85407190799015 112.53706293716095,204.28241171402624 111.9932867132593,204.63936133636162 109.57650349638425,205.1390904787695 106.19300699280575,205.99576811434235 105.64923076913692,206.06715786631685 104.01790209766477,206.6382756002131 100.45314685301855,206.99522392870858 99.42601398588158,206.56688591081183 97.67384615377523,206.78105495503405 95.55916083906777,207.20939283195185 93.26321678329259,207.2807824505726 90.90685314685106,207.06661357107805 90.42349650315009,207.20939283195185 89.81930069928057,206.99522392870858 89.33594405581243,206.49549621361075 89.15468531474471,205.99576811434235 89.27552447537892,203.568511880585 89.03384615387768,201.42680767551064 88.85258741234429,200.3559529261547 88.12755244760774,199.64204877970042 86.13370629353449,199.42787738278275 83.17314685275778,199.49926785641583 82.56895104888827,200.28456254670164 81.96475524432026,200.42734329763334 81.42097902088426,200.42734329763334 80.99804195784964,200.28456254670164 79.24587412574328,200.3559529261547 78.9437762235757,200.64151436509565 78.46041958010755,200.71290470525855 78.39999999990687,201.069856288319 79.24587412574328,202.99739144928753 79.66881118877791,203.78268191282405 80.75636363658123,204.71075123746414 81.72307692305185,204.92492089327425 81.72307692305185,205.7815988114453 83.05230769212358,205.85298858687747 83.83776223752648,205.28187016322045 84.86489510489628,205.2104803249822 85.22741258703172,205.28187016322045 86.0732867133338,205.06770062475698 88.30881118867546,205.4960396308452 88.49006993020885,205.7815988114453 88.49006993020885,206.28132707538316 88.7921678321436,206.49549621361075 89.33594405581243,206.6382756002131 89.69846153864637,206.99522392870858 99.96979020978324,206.49549621361075 100.99692307692021,206.6382756002131 103.17202797182836,206.42410650878446 104.86377622396685,205.99576811434235 105.40755244763568,206.06715786631685 106.37426573433913,205.85298858687747 108.24727272707969,205.28187016322045 108.79104895098135,205.06770062475698 108.42853146861307,202.99739144928753 107.70349650341086,200.78429503750522 105.2262937061023,194.71608879539417 104.56167832156643,192.71713786182227 104.07832167833112,192.28879043326015 104.19916083919816,192.00322532420978 104.07832167833112,191.6462687611929 104.92419580416754,190.78957221028395 106.19300699280575,190.1470490557258 109.57650349638425,188.7192175493692 110.18069930071943,189.57591682957718 113.26209790213034,196.5722520138952 114.47048951056786,197.7145036671427 116.645594405476,198.57119108980987 119.2436363636516,200.85568536206847 119.60615384625271,200.78429503750522 120.51244755228981,201.21263686666498 121.5999999998603,202.3548803642043" stroke="#4DD2FF" stroke-linecap="round" stroke-linejoin="round" stroke-width="0.5"><title>2022-07-23 3.6km</title><desc>15041453608</desc></polyline><polyline fill="none" points="180.22881118860096,203.85407190799015 178.53706293716095,204.28241171402624 177.9932867132593,204.63936133636162 175.57650349638425,205.1390904787695 172.19300699280575,205.99576811434235 171.64923076913692,206.06715786631685 170.01790209766477,206.6382756002131 166.45314685301855,206.99522392870858 165.42601398588158,206.56688591081183 163.67384615377523,206.78105495503405 161.55916083906777,207.20939283195185 159.2632167832926,207.2807824505726 156.90685314685106,207.06661357107805 156.4234965031501,207.20939283195185 155.81930069928057,206.99522392870858 155.33594405581243,206.49549621361075 155.1546853147447,205.99576811434235 155.27552447537892,203.568511880585 155.03384615387768,201.42680767551064 154.8525874123443,200.3559529261547 154.12755244760774,199.64204877970042 152.1337062935345,199.42787738278275 149.17314685275778,199.49926785641583 148.56895104888827,200.28456254670164 147.96475524432026,200.42734329763334 147.42097902088426,200.42734329763334 146.99804195784964,200.28456254670164 145.24587412574328,200.3559529261547 144.9437762235757,200.64151436509565 144.46041958010755,200.71290470525855 144.39999999990687,201.069856288319 145.24587412574328,202.99739144928753 145.6688111887779,203.78268191282405 146.75636363658123,204.71075123746414 147.72307692305185,204.92492089327425 147.72307692305185,205.7815988114453 149.05230769212358,205.85298858687747 149.83776223752648,205.28187016322045 150.86489510489628,205.2104803249822 151.22741258703172,205.28187016322045 152.0732867133338,205.06770062475698 154.30881118867546,205.4960396308452 154.49006993020885,205.7815988114453 154.49006993020885,206.28132707538316 154.7921678321436,206.49549621361075 155.33594405581243,206.6382756002131 155.69846153864637,206.99522392870858 165.96979020978324,206.49549621361075 166.9969230769202,206.6382756002131 169.17202797182836,206.42410650878446 170.86377622396685,205.99576811434235 171.40755244763568,206.06715786631685 172.37426573433913,205.85298858687747 174.2472727270797,205.28187016322045 174.79104895098135,205.06770062475698 174.42853146861307,202.99739144928753 173.70349650341086,200.78429503750522 171.2262937061023,194.71608879539417 170.56167832156643,192.71713786182227 170.07832167833112,192.28879043326015 170.19916083919816,192.00322532420978 170.07832167833112,191.6462687611929 170.92419580416754,190.78957221028395 172.19300699280575,190.1470490557258 175.57650349638425,188.7192175493692 176.18069930071943,189.57591682957718 179.26209790213034,196.5722520138952 180.47048951056786,197.7145036671427 182.645594405476,198.57119108980987 185.2436363636516,200.85568536206847 185.6061538462527,200.78429503750522 186.5124475522898,201.21263686666498 187.5999999998603,202.3548803642043" stroke="#4DD2FF" stroke-linecap="round" stroke-linejoin="round" stroke-width="0.5"><title>2022-07-23 3.6km</title><desc>15041246884</desc></polyline><polyline fill="none" points="48.22881118860096,251.85407190799015 46.537062937160954,252.28241171402624 45.993286713259295,252.63936133636162 43.57650349638425,253.1390904787695 40.19300699280575,253.99576811434235 39.64923076913692,254.06715786631685 38.01790209766477,254.6382756002131 34.45314685301855,254.99522392870858 33.42601398588158,254.56688591081183 31.67384615377523,254.78105495503405 29.559160839067772,255.20939283195185 27.26321678329259,255.2807824505726 24.906853146851063,255.06661357107805 24.42349650315009,255.20939283195185 23.819300699280575,254.99522392870858 23.335944055812433,254.49549621361075 23.15468531474471,253.99576811434235 23.275524475378916,251.568511880585 23.033846153877676,249.42680767551064 22.852587412344292,248.3559529261547 22.12755244760774,247.64204877970042 20.133706293534487,247.42787738278275 17.17314685275778,247.49926785641583 16.568951048888266,248.28456254670164 15.964755244320258,248.42734329763334 15.42097902088426,248.42734329763334 14.998041957849637,248.28456254670164 13.245874125743285,248.3559529261547 12.943776223575696,248.64151436509565 12.460419580107555,248.71290470525855 12.399999999906868,249.069856288319 13.245874125743285,250.99739144928753 13.668811188777909,251.78268191282405 14.756363636581227,252.71075123746414 15.723076923051849,252.92492089327425 15.723076923051849,253.7815988114453 17.052307692123577,253.85298858687747 17.837762237526476,253.28187016322045 18.864895104896277,253.2104803249822 19.227412587031722,253.28187016322045 20.0732867133338,253.06770062475698 22.308811188675463,253.4960396308452 22.490069930208847,253.7815988114453 22.490069930208847,254.28132707538316 22.792167832143605,254.49549621361075 23.335944055812433,254.6382756002131 23.69846153864637,254.99522392870858 33.96979020978324,254.49549621361075 34.99692307692021,254.6382756002131 37.172027971828356,254.42410650878446 38.86377622396685,253.99576811434235 39.40755244763568,254.06715786631685 40.37426573433913,253.85298858687747 42.24727272707969,253.28187016322045 42.79104895098135,253.06770062475698 42.42853146861307,250.99739144928753 41.70349650341086,248.78429503750522 39.2262937061023,242.71608879539417 38.56167832156643,240.71713786182227 38.07832167833112,240.28879043326015 38.19916083919816,240.00322532420978 38.07832167833112,239.6462687611929 38.92419580416754,238.78957221028395 40.19300699280575,238.1470490557258 43.57650349638425,236.7192175493692 44.180699300719425,237.57591682957718 47.262097902130336,244.5722520138952 48.47048951056786,245.7145036671427 50.645594405476004,246.57119108980987 53.2436363636516,248.85568536206847 53.60615384625271,248.78429503750522 54.512447552289814,249.21263686666498 55.5999999998603,250.3548803642043" stroke="#4DD2FF" stroke-linecap="round" stroke-linejoin="round" stroke-width="0.5"><title>2022-07-23 3.6km</title><desc>15022375409</desc></polyline></svg>