<?xml version="1.0" encoding="utf-8" ?>
<svg baseProfile="full" height="300mm" version="1.1" viewBox="0,0,200,300" width="200mm" xmlns="http://www.w3.org/2000/svg" xmlns:ev="http://www.w3.org/2001/xml-events" xmlns:xlink="http://www.w3.org/1999/xlink"><defs /><rect fill="#222222" height="300" width="200" x="0" y="0" /><text fill="#FFFFFF" style="font-size:12px; font-family:Arial; font-weight:bold;" x="10" y="20">Gmx's Running Grid</text><text fill="#FFFFFF" style="font-size:4px; font-family:Arial" x="10" y="280">Runner</text><text fill="#FFFFFF" style="font-size:9px; font-family:Arial" x="10" y="290">gumuxi</text><text fill="#FFFFFF" style="font-size:4px; font-family:Arial" x="65" y="280">SPECIAL TRACKS</text><rect fill="yellow" height="2.6" width="2.6" x="65" y="283" /><text fill="#FFFFFF" style="font-size:3px; font-family:Arial" x="70" y="285.5">Over 20.0 km</text><rect fill="red" height="2.6" width="2.6" x="65" y="287" /><text fill="#FFFFFF" style="font-size:3px; font-family:Arial" x="70" y="289.5">Over 40.0 km</text><text fill="#FFFFFF" style="font-size:4px; font-family:Arial" x="120" y="280">STATISTICS</text><text fill="#FFFFFF" style="font-size:3px; font-family:Arial" x="120" y="285">Number: 1</text><text fill="#FFFFFF" style="font-size:3px; font-family:Arial" x="120" y="290">Weekly: 1.0</text><text fill="#FFFFFF" style="font-size:3px; font-family:Arial" x="141" y="285">Total: 3.6 km</text><text fill="#FFFFFF" style="font-size:3px; font-family:Arial" x="141" y="290">Avg: 3.6 km</text><text fill="#FFFFFF" style="font-size:3px; font-family:Arial" x="167" y="285">Min: 3.6 km</text><text fill="#FFFFFF" style="font-size:3px; font-family:Arial" x="167" y="290">Max: 3.6 km</text><polyline fill="none" points="153.35804195795208,171.9527696550358 147.01398601476103,173.55904392781667 144.97482517454773,174.89760501147248 135.91188811231405,176.77158929547295 123.22377622313797,179.98413042887114 121.18461538478732,180.2518419988919 115.06713286694139,182.39353350107558 101.69930069893599,183.73208973300643 97.8475524475798,182.1258221657481 91.27692307624966,182.92895608162507 83.34685314726084,184.53522311989218 74.73706293758005,184.80293418979272 65.90069930069149,183.99980089161545 64.08811188768595,184.53522311989218 61.822377623058856,183.73208973300643 60.009790209122,181.8581108013168 59.330069930292666,179.98413042887114 59.78321678284556,170.88191955233924 58.87692307680845,162.85052878339775 58.19720279611647,158.83482347335666 55.47832167893648,156.15768292406574 48.00139860063791,155.35454018577002 36.89930069819093,155.62225446174853 34.63356643356383,158.56710955034941 32.367832167074084,159.10253736632876 30.32867132872343,159.10253736632876 28.742657342925668,158.56710955034941 22.172027971595526,158.83482347335666 21.039160839281976,159.90567886922508 19.226573426276445,160.17339264485054 19.0,161.5119610815309 22.172027971595526,168.74021793506108 23.75804195832461,171.68505717348307 27.836363636888564,175.16531714075245 31.461538461968303,175.96845335001126 31.461538461968303,179.18099554325454 36.44615384563804,179.44870720081963 39.39160839188844,177.30701311212033 43.24335664417595,177.03930121893063 44.60279720183462,177.30701311212033 47.77482517529279,176.50387734314427 56.15804195776582,178.1101486159023 56.8377622384578,179.18099554325454 56.8377622384578,181.05497653293423 57.97062937077135,181.8581108013168 60.009790209122,182.39353350107558 61.369230770505965,183.73208973300643 99.88671328686178,181.8581108013168 103.73846153914928,182.39353350107558 111.89510489441454,181.5903994080145 118.23916084039956,179.98413042887114 120.27832167875022,180.2518419988919 123.90349650382996,179.44870720081963 130.92727272678167,177.30701311212033 132.96643356606364,176.50387734314427 131.60699300747365,168.74021793506108 128.888111888431,160.4411063909065 119.59860139805824,137.68533298303373 117.10629370622337,130.1892669822555 115.29370629414916,128.58296412508935 115.74685314763337,127.51209496613592 115.29370629414916,126.17350785457529 118.46573426574469,122.96089578862302 123.22377622313797,120.55143395927735 135.91188811231405,115.19706581020728 138.1776223788038,118.40968811116181 149.73286713380367,144.64594505238347 154.2643356649205,148.92938875197433 162.4209790211171,152.14196658693254 172.16363636404276,160.70882010809146 173.52307692356408,160.4411063909065 176.92167832143605,162.04738825024106 181.0,166.33080136589706" stroke="#4DD2FF" stroke-linecap="round" stroke-linejoin="round" stroke-width="0.5"><title>2022-07-23 3.6km</title><desc>15022375409</desc></polyline></svg>