<?xml version="1.0" encoding="utf-8" ?>
<svg baseProfile="full" height="200mm" version="1.1" viewBox="0,0,200,200" width="200mm" xmlns="http://www.w3.org/2000/svg" xmlns:ev="http://www.w3.org/2001/xml-events" xmlns:xlink="http://www.w3.org/1999/xlink"><defs /><rect fill="#1a1a1a" height="200" width="200" x="0" y="0" /><text alignment-baseline="middle" fill="#e1ed5e" style="dominant-baseline: central; font-size:9.0px; font-family:Arial;" text-anchor="middle" x="100.0" y="100.0">2025</text><line stroke="#e1ed5e" stroke-width="0.3" x1="100.0" x2="100.0" y1="15.0" y2="10.0" /><path d="M 100.0 14.0 a86.0,86.0 0 0,1 42.46469731375804,11.215312516191453" fill="none" id="id97" stroke="none" /><text fill="#e1ed5e" style="font-size:6.75px; font-family:Arial;" text-anchor="middle"><textPath startOffset="22.20632615414155" xlink:href="#id97">January</textPath></text><line stroke="#e1ed5e" stroke-width="0.3" x1="143.23703022742887" x2="145.7803849466894" y1="26.81831364943548" y2="22.513508569990506" /><path d="M 143.74570117128098 25.957352633546492 a86.0,86.0 0 0,1 28.547481713284135,27.462654790039103" fill="none" id="id98" stroke="none" /><text fill="#e1ed5e" style="font-size:6.75px; font-family:Arial;" text-anchor="middle"><textPath startOffset="19.985693538727396" xlink:href="#id98">February</textPath></text><line stroke="#e1ed5e" stroke-width="0.3" x1="172.23445277983987" x2="176.4835382374775" y1="55.19839476539836" y2="52.563006222186495" /><path d="M 173.08426987136738 54.67131705675599 a86.0,86.0 0 0,1 12.851231095245387,41.99856678651699" fill="none" id="id99" stroke="none" /><text fill="#e1ed5e" style="font-size:6.75px; font-family:Arial;" text-anchor="middle"><textPath startOffset="22.20632615414155" xlink:href="#id99">March</textPath></text><line stroke="#e1ed5e" stroke-width="0.3" x1="184.98032266829074" x2="189.97916517819016" y1="98.17113171792111" y2="98.06355123074" /><path d="M 185.9800911702706 98.14961562048488 a86.0,86.0 0 0,1 -9.607161424134198,41.387399972396054" fill="none" id="id100" stroke="none" /><text fill="#e1ed5e" style="font-size:6.75px; font-family:Arial;" text-anchor="middle"><textPath startOffset="21.466115282336823" xlink:href="#id100">April</textPath></text><line stroke="#e1ed5e" stroke-width="0.3" x1="174.80103733775053" x2="179.2010983576182" y1="140.37084112569926" y2="142.7455964860345" /><path d="M 175.68104954172406 140.8457921977663 a86.0,86.0 0 0,1 -30.038265399797805,32.042727171017184" fill="none" id="id101" stroke="none" /><text fill="#e1ed5e" style="font-size:6.75px; font-family:Arial;" text-anchor="middle"><textPath startOffset="22.206326154141568" xlink:href="#id101">May</textPath></text><line stroke="#e1ed5e" stroke-width="0.3" x1="143.8653032363475" x2="146.44561519142675" y1="172.8068346515853" y2="177.08958963109032" /><path d="M 144.38136562736335 173.6633856474863 a86.0,86.0 0 0,1 -40.68145358897372,12.25698825130547" fill="none" id="id102" stroke="none" /><text fill="#e1ed5e" style="font-size:6.75px; font-family:Arial;" text-anchor="middle"><textPath startOffset="21.466115282336833" xlink:href="#id102">June</textPath></text><line stroke="#e1ed5e" stroke-width="0.3" x1="102.19456741930631" x2="102.32365962044197" y1="184.97166512339345" y2="189.96999836594603" /><path d="M 102.22038585953345 185.97133177190398 a86.0,86.0 0 0,1 -42.740103519485714,-10.115201625700543" fill="none" id="id103" stroke="none" /><text fill="#e1ed5e" style="font-size:6.75px; font-family:Arial;" text-anchor="middle"><textPath startOffset="22.20632615414155" xlink:href="#id103">July</textPath></text><path d="M 100.54218724476979 120.99299961872073 l 1.1401476915925528 44.14548716477149 a65.16020803589639,65.16020803589639 0 0,0 -1.121501228531079,0.01930766071419279 l -0.38008677316880585 -44.15857230276484" fill="red" stroke="none" /><path d="M 100.18074693466247 120.99922214144158 l 0.4014866498915388 46.64481510372484 a67.64654293289823,67.64654293289823 0 0,0 -1.1644671691079564,0.0 l 0.4014866498915067 -46.64481510372484" fill="red" stroke="none" /><path d="M 99.81925306533755 120.99922214144158 l -0.3431326855685773 39.86523755824995 a60.8667142565776,60.8667142565776 0 0,0 -1.0476040036243703,-0.01803545297164051 l 1.0292963790856156 -39.853424627999146" fill="red" stroke="none" /><path d="M 99.45781275523022 120.99299961872073 l -1.0393673085031947 40.24336190421297 a61.25678156230879,61.25678156230879 0 0,0 -1.0538489762082919,-0.03629668955945476 l 1.7319366363861297 -40.21950841622742" fill="red" stroke="none" /><path d="M 99.09653310690486 120.98055641714683 l -2.1450395749176985 49.81269835399977 a70.85886192127268,70.85886192127268 0 0,0 -1.218137838677168,-0.0629638121934001 l 3.002165482008355 -49.76839473504417" fill="red" stroke="none" /><path d="M 98.73552117531835 120.96189622390904 l -3.013605145044505 49.958035735525634 a71.04884764429941,71.04884764429941 0 0,0 -1.2201362030608838,-0.08414773624399807 l 3.8731041088843186 -49.89875965476535" fill="red" stroke="none" /><path d="M 98.37488393609728 120.93702456842531 l -3.790998364447754 48.84095829112064 a69.98786457271058,69.98786457271058 0 0,0 -1.200310814999865,-0.1035678677626964 l 4.63115349718916 -48.76846617107928" fill="red" stroke="none" /><path d="M 98.01472825383883 120.90594882070398 l -4.96312152117503 52.264262921815586 a73.49938812971651,73.49938812971651 0 0,0 -1.2584754352799925,-0.13044612446236653 l 5.862029553060616 -52.17108742889746" fill="red" stroke="none" /><path d="M 97.65516085044442 120.86867818915974 l -6.037272477760074 53.73072029376722 a75.06883540689375,75.06883540689375 0 0,0 -1.2828641148096698,-0.15533697865763804 l 6.961264015621134 -53.61883778638423" fill="red" stroke="none" /><path d="M 97.2962882734958 120.8252237178851 l -6.050678547637624 46.60509223832228 a67.99622679991842,67.99622679991842 0 0,0 -1.1594049868679306,-0.16068296665758736 l 6.852012125692385 -46.49403470617209" fill="red" stroke="none" /><path d="M 96.58105272829116 120.7198165907248 l -10.169428096676478 61.62969717002526 a83.46308382622885,83.46308382622885 0 0,0 -1.4154982451821867,-0.24610251388288137 l 11.228775313330715 -61.44551607762138" fill="red" stroke="none" /><path d="M 96.22490169976321 120.6578951692458 l -11.325294900710388 61.97368550773742 a84.0,84.0 0 0,0 -1.4201295417132198,-0.2721712066061275 l 12.390392056995301 -61.76955710278283" fill="red" stroke="none" /><line stroke="#e1ed5e" stroke-width="0.3" x1="58.666819895761336" x2="56.23545636021788" y1="174.27360380694188" y2="178.64263932499728" /><path d="M 58.180547188652646 175.14741091055294 a86.0,86.0 0 0,1 -31.652253787137756,-30.449443065178592" fill="none" id="id104" stroke="none" /><text fill="#e1ed5e" style="font-size:6.75px; font-family:Arial;" text-anchor="middle"><textPath startOffset="22.20632615414155" xlink:href="#id104">August</textPath></text><line stroke="#e1ed5e" stroke-width="0.3" x1="26.63291911575756" x2="22.317208475507996" y1="142.92168965132927" y2="145.44649492493687" /><path d="M 25.769776987707644 143.4266507060508 a86.0,86.0 0 0,1 -11.730757126820373,-40.83630448921669" fill="none" id="id105" stroke="none" /><text fill="#e1ed5e" style="font-size:6.75px; font-family:Arial;" text-anchor="middle"><textPath startOffset="21.46611528233685" xlink:href="#id105">September</textPath></text><line stroke="#e1ed5e" stroke-width="0.3" x1="15.007084014347285" x2="10.007500721073583" y1="101.09737516637583" y2="101.16192664675087" /><path d="M 14.007167355692545 101.11028546245083 a86.0,86.0 0 0,1 10.666146001902534,-42.60595125391555" fill="none" id="id106" stroke="none" /><text fill="#e1ed5e" style="font-size:6.75px; font-family:Arial;" text-anchor="middle"><textPath startOffset="22.20632615414155" xlink:href="#id106">October</textPath></text><line stroke="#e1ed5e" stroke-width="0.3" x1="26.266209847984243" x2="21.928928074336255" y1="57.711370442889674" y2="55.22380399835377" /><path d="M 25.398753493254645 57.213857153982495 a86.0,86.0 0 0,1 29.58750427330803,-30.492523968695096" fill="none" id="id107" stroke="none" /><text fill="#e1ed5e" style="font-size:6.75px; font-family:Arial;" text-anchor="middle"><textPath startOffset="21.46611528233685" xlink:href="#id107">November</textPath></text><line stroke="#e1ed5e" stroke-width="0.3" x1="56.762969772571076" x2="54.21961505331055" y1="26.818313649435495" y2="22.513508569990535" /><path d="M 56.25429882871897 25.957352633546506 a86.0,86.0 0 0,1 42.265352541879196,-11.944610805530505" fill="none" id="id108" stroke="none" /><text fill="#e1ed5e" style="font-size:6.75px; font-family:Arial;" text-anchor="middle"><textPath startOffset="22.20632615414155" xlink:href="#id108">December</textPath></text></svg>